<svg version="1.1" xmlns="http://www.w3.org/2000/svg" width="270" height="91" viewBox="0 0 270 91">
  <path fill="#048cca" d="M134.4 59l-15-16.7 13.4-12h3.4v-4h-16.8v4h3.9c1.4 0 2.1 1.8 1 2.7l-7.3 6.5-6-6.7c-.9-1-.2-2.6 1.1-2.6h2.8v-4H92.7v4h4.6l12.5 14L95.7 58.8h-4.2v4h18v-4h-4.9c-1.4 0-2.1-1.6-1.1-2.6l8.8-9.1 8.2 9.2c.9 1 .2 2.6-1.2 2.6h-4.4v4h23v-4h-3.5V59zM190.3 59c-1.6 0-2.9-1.3-2.9-2.9V35.2c0 0 .2-9.4-11.4-9.4-11.5 0-16.3 8-16.3 8v-3.2l0 0v-4.1h-16.1v4.1h3.4c1.6 0 2.8 1.3 2.8 2.8v22.9c0 1.6-1.3 2.8-2.8 2.8h-3.4v4.1h21v-4.1h-2.1c-1.6 0-2.8-1.3-2.8-2.8V40.2c0 0 5.6-9.1 12.1-9.1 4.6 0 5.8 4.1 5.8 4.1v20.9c0 1.6-1.3 2.9-2.9 2.9h-2v4.1h21V59H190.3zM220.5 60c-11.7 0-11.2-15.6-11.2-15.6l28.4-.2c0-12.7-5.8-19.2-18.3-19.2s-19.7 8.7-19.7 19.4 4.8 20 19.7 20 17-12.3 17-12.3l-4.7-.9C231.8 51.2 232.2 60 220.5 60zM219.6 28.8c9 0 9.6 11.9 9.6 11.9h-19.9C209.3 40.6 210.6 28.8 219.6 28.8zM269.1 51.9h-3.5c0 0 .3 7.5-2.9 7.5-3.8 0-3.5-2.9-3.5-2.9V30.7h9.4v-4.3h-9.3v-11h-5.9V19c0 4.6-3.7 8.3-8.3 8.3h-1.5v3.3h6.4v25.8c0 0 .4 7 10.2 7C270.6 63.5 269.1 51.9 269.1 51.9zM45.6 1.5C21.2 1.5 1.4 21.3 1.4 45.7c0 24.4 19.8 44.2 44.2 44.2 24.4 0 44.2-19.8 44.2-44.2C89.8 21.3 70 1.5 45.6 1.5zM61.8 64.4v-4.1h2c1.6 0 2.9-1.3 2.9-2.9V36.5c0 0-.7-4.1-3.3-4.1-7.6 0-11.6 7.7-12.4 9.3v15.6c0 1.6 1.3 2.9 2.9 2.9h3.4v4.1h-21v-4.1h2c1.6 0 2.9-1.3 2.9-2.9V36.4c0 0-.7-4.1-3.3-4.1-8.4 0-12.1 9.1-12.1 9.1v16.1c0 1.5 1.2 2.8 2.8 2.8h2.1v4.1h-21v-4.1h3.4c1.5 0 2.8-1.2 2.8-2.8V34.6c0-1.5-1.2-2.8-2.8-2.8H9.7v-4.1h16.1V32v3.2c0 0 5.2-8 13.9-8 9.3 0 11 6.1 11.3 8.5.6-1 6.1-8.5 14.2-8.5 11.6 0 11.4 9.4 11.4 9.4v20.9c0 1.6 1.3 2.9 2.9 2.9v-.1h3.3v4.1H61.8z"/>
</svg>
