<svg xmlns="http://www.w3.org/2000/svg" width="110" height="30" viewBox="10 0 170 41" style="color: #252525">
  <path fill="#EE4C2C" d="M40.8 9.3l-2.1 2.1a9 9 0 11-12.7 0l5.6-5.6.7-.8V.8l-8.5 8.5c-4.7 4.7-4.7 12.2 0 16.9s12.2 4.7 16.9 0c4.8-4.7 4.8-12.3.1-16.9z"/>
  <circle fill="#EE4C2C" cx="36.6" cy="7.1" r="1.6"/>
  <path fill="currentColor" d="M62.6 20H59v9.3h-2.7V2.9h6.6c7 0 10.3 3.4 10.3 8.3 0 5.8-4.1 8.7-10.6 8.8zm.2-14.6h-3.9v12.1l3.8-.1c5-.1 7.7-2.1 7.7-6.2 0-3.7-2.6-5.8-7.6-5.8zm22.6 23.8l-1.6 4.2c-1.8 4.7-3.6 6.1-6.3 6.1-1.5 0-2.6-.4-3.8-.9l.8-2.4c.9.5 1.9.8 3 .8 1.5 0 2.6-.8 4-4.5l1.3-3.4L75.3 10h2.8l6.1 16 6-16h2.7l-7.5 19.2z"/>
  <path fill="currentColor" d="M101.9 5.5v23.9h-2.7V5.5h-9.3V2.9h21.3v2.5h-9.3zm16.9 24.4c-5.4 0-9.4-4-9.4-10.2 0-6.2 4.1-10.3 9.6-10.3 5.4 0 9.3 4 9.3 10.2 0 6.2-4.1 10.3-9.5 10.3zm.1-18.1c-4.1 0-6.8 3.3-6.8 7.8 0 4.7 2.8 7.9 6.9 7.9s6.8-3.3 6.8-7.8c0-4.7-2.8-7.9-6.9-7.9zM135 29.4h-2.6V10l2.6-.5v4.1c1.3-2.5 3.2-4.1 5.7-4.1 1.3 0 2.5.4 3.4.9l-.7 2.5c-.8-.5-1.9-.8-3-.8-2 0-3.9 1.5-5.5 5v12.3zm19.4.5c-5.8 0-9.5-4.2-9.5-10.2 0-6.1 4-10.3 9.5-10.3 2.4 0 4.4.6 6.1 1.7l-.7 2.4a9.6 9.6 0 00-5.4-1.6c-4.2 0-6.8 3.1-6.8 7.7 0 4.7 2.8 7.8 6.9 7.8a10 10 0 005.4-1.6l.5 2.4a11 11 0 01-6 1.7zm22.3-.5V16.9c0-3.4-1.4-4.9-4.1-4.9a8.5 8.5 0 00-6 2.8v14.7H164V.9l2.6-.5v12.2c2-2 4.6-3.1 6.7-3.1 3.8 0 6.1 2.4 6.1 6.6v13.3h-2.7z"/>
</svg>
