<svg xmlns="http://www.w3.org/2000/svg" xmlns:xlink="http://www.w3.org/1999/xlink" width="500" height="130" viewBox="50 75 600 100" style="color: #000">
  <defs>
    <linearGradient id="linear-gradient" x1="59.26" y1="114.75" x2="167.52" y2="114.75" gradientUnits="userSpaceOnUse">
      <stop offset="0" stop-color="#ff6f00"/>
      <stop offset="1" stop-color="#ffa800"/>
    </linearGradient>
    <linearGradient id="linear-gradient-2" x1="58.53" y1="114.75" x2="166.79" y2="114.75" xlink:href="#linear-gradient"/>
    <clipPath id="clip-path">
      <path class="cls-1" d="M155.5 88.4l-44.1-25.1v103.2l17.6-10.2v-29.1l13.3 7.7-.1-19.8-13.2-7.6V96l26.5 15.3V88.4z"/>
    </clipPath>
    <clipPath id="clip-path-2">
      <path class="cls-1" d="M63.3 88.4l44.1-25.1v103.2l-17.6-10.2V96l-26.5 15.3V88.4z"/>
    </clipPath>
  </defs>
  <g style="clip-path:url(#clip-path)">
    <path style="fill:url(#linear-gradient)" d="M59.3 62.9h108.3v103.8H59.3z"/>
  </g>
  <g style="clip-path:url(#clip-path-2)">
    <path style="fill:url(#linear-gradient-2)" d="M58.5 62.9h108.3v103.8H58.5z"/>
  </g>
  <path class="cls-6" d="M235.4 95.3h-19.7v54.3h-10.9V95.3h-19.6v-9h50.2z" fill="currentColor" />
  <path class="cls-6" d="M248.5 150.5q-10 0-16.2-6.3t-6.3-16.8V126a28.3 28.3 0 012.7-12.5 20.7 20.7 0 017.6-8.7 20.2 20.2 0 0111-3q9.6 0 14.9 6t5.2 17.4v4.3h-30.7a14 14 0 003.9 9.2 11.7 11.7 0 008.5 3.4 14.3 14.3 0 0011.9-5.9l5.7 5.5a19 19 0 01-7.5 6.5 23.6 23.6 0 01-10.7 2.3zm-1.2-40.3a8.9 8.9 0 00-7 3 15.8 15.8 0 00-3.4 8.5H257v-.7c-.2-3.5-1.2-6.2-2.8-8a8.8 8.8 0 00-7-2.8zM285.4 102.6l.3 5.5a16.9 16.9 0 0113.7-6.3q14.6 0 14.9 16.8v31h-10.6v-30.4c0-3-.6-5.2-1.9-6.6s-3.4-2.2-6.3-2.2a10.2 10.2 0 00-9.5 5.8v33.4h-10.6v-47zM348.6 136.9a4.8 4.8 0 00-2.4-4.3 24.8 24.8 0 00-7.7-2.6 39.6 39.6 0 01-9-3q-7.9-3.7-7.9-11a12.5 12.5 0 015.1-10.2q5.2-4 13-4 8.5 0 13.7 4.1a13.2 13.2 0 015.2 10.8H348a6.5 6.5 0 00-2.3-5 8.7 8.7 0 00-6-2 9.4 9.4 0 00-5.6 1.6 5 5 0 00-2.2 4.3 4.3 4.3 0 002 3.8c1.3.9 4 1.8 8.2 2.7a39 39 0 019.8 3.3 13.8 13.8 0 015.2 4.5 11.5 11.5 0 011.7 6.4 12.2 12.2 0 01-5.2 10.3c-3.5 2.6-8.1 4-13.8 4a24.3 24.3 0 01-10.3-2.1 17 17 0 01-7-5.8 13.6 13.6 0 01-2.5-7.9h10.3a7.4 7.4 0 002.8 5.8 11 11 0 006.9 2q4.2 0 6.3-1.6a5 5 0 002.3-4.1zM364.4 125.7a27.6 27.6 0 012.7-12.4 20 20 0 017.7-8.6 21.7 21.7 0 0111.4-3q9.5 0 15.4 6.2T408 124v2.5a28 28 0 01-2.6 12.4 19.7 19.7 0 01-7.6 8.5 21.8 21.8 0 01-11.5 3q-10 0-16-6.7t-6-17.6zm10.5 1q0 7.2 3 11.3a10.5 10.5 0 0016.7 0q3-4.3 3-12.3 0-7.1-3-11.3a10.3 10.3 0 00-16.6 0q-3 4-3 12.2zM439.8 112.3a26.3 26.3 0 00-4.3-.4q-7.2 0-9.7 5.6v32.1h-10.6v-47h10l.3 5.3q3.9-6.1 10.6-6.1a10 10 0 013.8.6zM484 122.8h-25.5v26.8h-11V86.4h40.2v8.8h-29.2v18.9H484zM504.8 149.6h-10.5V86.3h10.5zM512.6 125.7a27.6 27.6 0 012.7-12.4 20 20 0 017.7-8.6 21.7 21.7 0 0111.4-3q9.5 0 15.4 6.2t6.4 16.2v2.5a28 28 0 01-2.6 12.4 19.7 19.7 0 01-7.6 8.5 21.8 21.8 0 01-11.5 3q-10 0-16-6.7t-6-17.6zm10.5 1q0 7.2 3 11.3a9.7 9.7 0 008.4 4 9.6 9.6 0 008.3-4q3-4.3 3-12.3 0-7.1-3-11.3a10.3 10.3 0 00-16.6 0q-3 4-3 12.2zM604 135l7.4-32.4h10.3l-12.8 47h-8.7l-10-32.3-10 32.3h-8.7l-12.9-47H569l7.6 32.1 9.7-32h7.9z" fill="currentColor" />
</svg>
