<svg xmlns="http://www.w3.org/2000/svg" width="24" height="28" viewBox="0 0 24 28" fill="currentColor">
    <path d="M12 2q3.266 0 6.023 1.609t4.367 4.367 1.609 6.023q0 3.922-2.289 7.055t-5.914 4.336q-0.422 0.078-0.625-0.109t-0.203-0.469q0-0.047 0.008-1.195t0.008-2.102q0-1.516-0.812-2.219 0.891-0.094 1.602-0.281t1.469-0.609 1.266-1.039 0.828-1.641 0.32-2.352q0-1.859-1.234-3.219 0.578-1.422-0.125-3.187-0.438-0.141-1.266 0.172t-1.437 0.688l-0.594 0.375q-1.453-0.406-3-0.406t-3 0.406q-0.25-0.172-0.664-0.422t-1.305-0.602-1.328-0.211q-0.703 1.766-0.125 3.187-1.234 1.359-1.234 3.219 0 1.328 0.32 2.344t0.82 1.641 1.258 1.047 1.469 0.609 1.602 0.281q-0.609 0.562-0.766 1.609-0.328 0.156-0.703 0.234t-0.891 0.078-1.023-0.336-0.867-0.977q-0.297-0.5-0.758-0.812t-0.773-0.375l-0.313-0.047q-0.328 0-0.453 0.070t-0.078 0.18 0.141 0.219 0.203 0.187l0.109 0.078q0.344 0.156 0.68 0.594t0.492 0.797l0.156 0.359q0.203 0.594 0.688 0.961t1.047 0.469 1.086 0.109 0.867-0.055l0.359-0.063q0 0.594 0.008 1.383t0.008 0.852q0 0.281-0.203 0.469t-0.625 0.109q-3.625-1.203-5.914-4.336t-2.289-7.055q0-3.266 1.609-6.023t4.367-4.367 6.023-1.609zM4.547 19.234q0.047-0.109-0.109-0.187-0.156-0.047-0.203 0.031-0.047 0.109 0.109 0.187 0.141 0.094 0.203-0.031zM5.031 19.766q0.109-0.078-0.031-0.25-0.156-0.141-0.25-0.047-0.109 0.078 0.031 0.25 0.156 0.156 0.25 0.047zM5.5 20.469q0.141-0.109 0-0.297-0.125-0.203-0.266-0.094-0.141 0.078 0 0.281t0.266 0.109zM6.156 21.125q0.125-0.125-0.063-0.297-0.187-0.187-0.313-0.047-0.141 0.125 0.063 0.297 0.187 0.187 0.313 0.047zM7.047 21.516q0.047-0.172-0.203-0.25-0.234-0.063-0.297 0.109t0.203 0.234q0.234 0.094 0.297-0.094zM8.031 21.594q0-0.203-0.266-0.172-0.25 0-0.25 0.172 0 0.203 0.266 0.172 0.25 0 0.25-0.172zM8.937 21.438q-0.031-0.172-0.281-0.141-0.25 0.047-0.219 0.234t0.281 0.125 0.219-0.219z"></path>
</svg>
