<svg xmlns="http://www.w3.org/2000/svg" width="334" height="162" viewBox="0 0 340 162">
  <path d="M57.6 21.2H40.4V160h-23V21.2H0V2h57.6zM134.8 160h-23.2V73.6h-20V160h-23V2h23v52.2h20V2h23.2zM172.6 22.8h-20.2V2h20.2zm0 137.2h-20.2V40.2h20.2zM234.8 160L211 61.4h-.8V160h-19.8V2h25.4l22.8 101.4h.8V2h20v158zM317.6 69V33.2a57.9 57.9 0 00-.3-6.5 7.8 7.8 0 00-1.4-3.8 6.4 6.4 0 00-3-1.8 21.7 21.7 0 00-4.9-.5 23 23 0 00-5.1.5 5.8 5.8 0 00-3 1.9 8.6 8.6 0 00-1.4 3.9 55.3 55.3 0 00-.3 6.3v95.4a58.2 58.2 0 00.3 6.7 7.8 7.8 0 001.4 3.9 4.8 4.8 0 003 1.9 18.2 18.2 0 005.1.5 17.2 17.2 0 004.9-.5 4.8 4.8 0 003-1.9 7.8 7.8 0 001.4-3.9 58.2 58.2 0 00.3-6.7V92h22.2v36.6a93.2 93.2 0 01-1.3 17.8c-.9 4.4-2.5 7.8-4.9 10a18.3 18.3 0 01-9.8 4.5A86.5 86.5 0 01308 162a94.8 94.8 0 01-16.6-1.1c-4.3-.7-7.6-2.2-10-4.6s-4-5.7-4.9-10.1a91.6 91.6 0 01-1.3-17.6V33.2a89.5 89.5 0 011.4-17.4 18.7 18.7 0 015.1-10.1 19.8 19.8 0 0110.1-4.6A102.8 102.8 0 01308 0a96.5 96.5 0 0115.8 1.1 19.1 19.1 0 019.8 4.6c2.4 2.4 4 5.7 4.9 10a91.1 91.1 0 011.3 17.5V69z" fill="currentColor" />
</svg>
