<svg height="179.758125pt" viewBox="0 0 1189.8 179.8" width="1189.803125pt" xmlns="http://www.w3.org/2000/svg" xmlns:xlink="http://www.w3.org/1999/xlink">
  <defs/>
  <g id="figure_1">
    <path d="M0 179.8h1189.8V0H0z" style="fill:none" id="patch_1"/>
    <g id="axes_1">
      <path d="M61 163h1116V0H61z" style="fill:none" id="patch_2"/>
      <g id="matplotlib.axis_1">
        <g id="xtick_1">
          <g id="line2d_1">
            <defs>
              <path d="M0 0v3.5" id="m391d3e88b1" style="stroke:#6a5f8e;stroke-width:0.8"/>
            </defs>
            <use style="fill:#6a5f8e;stroke:#6a5f8e;stroke-width:0.8" x="61.1" xlink:href="#m391d3e88b1" y="163.1"/>
          </g>
          <g id="text_1">
            <defs>
              <path d="M31.8 66.4q-7.6 0-11.5-7.5-3.8-7.5-3.8-22.5t3.8-22.5q3.9-7.5 11.5-7.5 7.7 0 11.5 7.5T47 36.4q0 15-3.8 22.5t-11.5 7.5zm0 7.8q12.2 0 18.7-9.7T57 36.4Q57 18 50.5 8.3 44-1.4 31.8-1.4 19.5-1.4 13 8.3q-6.5 9.7-6.5 28 0 18.5 6.5 28.2 6.4 9.7 18.7 9.7z" id="DejaVuSans-48"/>
            </defs>
            <use xlink:href="#DejaVuSans-48" transform="matrix(.1 0 0 -.1 57.9 177.7)"/>
          </g>
        </g>
        <g id="xtick_2">
          <use style="fill:#6a5f8e;stroke:#6a5f8e;stroke-width:0.8" x="1177.1" xlink:href="#m391d3e88b1" y="163.1" id="line2d_2"/>
          <g id="text_2">
            <defs>
              <path d="M10.8 73h38.7v-8.4H19.8V46.7q2.2.8 4.3 1.1 2.2.4 4.3.4 12.2 0 19.4-6.7 7-6.7 7-18.1 0-11.8-7.2-18.3-7.4-6.5-20.7-6.5-4.6 0-9.4.8-4.7.7-9.8 2.3v10q4.4-2.5 9.1-3.6 4.7-1.2 9.9-1.2 8.5 0 13.4 4.4 5 4.5 5 12 0 7.7-5 12.1Q35 40 26.7 40q-4 0-7.9-.9-4-.9-8-2.7z" id="DejaVuSans-53"/>
            </defs>
            <g style="fill:#6a5f8e" transform="matrix(.1 0 0 -.1 1164.4 177.7)">
              <use xlink:href="#DejaVuSans-53"/>
              <use x="63.6" xlink:href="#DejaVuSans-48"/>
              <use x="127.2" xlink:href="#DejaVuSans-48"/>
              <use x="190.9" xlink:href="#DejaVuSans-48"/>
            </g>
          </g>
        </g>
      </g>
      <g id="matplotlib.axis_2">
        <g id="ytick_1">
          <g id="line2d_3">
            <defs>
              <path d="M0 0h-3.5" id="m570893d818" style="stroke:#6a5f8e;stroke-width:0.8"/>
            </defs>
            <use style="fill:#6a5f8e;stroke:#6a5f8e;stroke-width:0.8" x="61.1" xlink:href="#m570893d818" y="149.5"/>
          </g>
          <g id="text_3">
            <defs>
              <path d="M10.7 12.4H21V0H10.7z" id="DejaVuSans-46"/>
              <path d="M33 40.4q-6.6 0-10.5-4.6-3.9-4.5-3.9-12.4T22.5 11Q26.4 6.4 33 6.4q6.7 0 10.5 4.6 4 4.5 4 12.4t-4 12.4q-3.8 4.6-10.5 4.6zm19.6 30.9v-9Q48.9 64.1 45 65q-3.8 1-7.5 1-9.8 0-15-6.7-5-6.6-5.8-19.9 2.9 4.3 7.2 6.5 4.4 2.3 9.6 2.3 11 0 17.4-6.7 6.3-6.6 6.3-18.1 0-11.2-6.6-18Q44-1.4 33-1.4q-12.6 0-19.3 9.7Q7 18 7 36.3 7 53.8 15.2 64q8.2 10.3 22 10.3 3.7 0 7.5-.7 3.8-.8 7.9-2.2z" id="DejaVuSans-54"/>
              <path d="M8.2 73h46.9v-4.3L28.6 0H18.3l25 64.6H8.1z" id="DejaVuSans-55"/>
            </defs>
            <g style="fill:#6a5f8e" transform="matrix(.1 0 0 -.1 0 153.3)">
              <use xlink:href="#DejaVuSans-48"/>
              <use x="63.6" xlink:href="#DejaVuSans-46"/>
              <use x="95.4" xlink:href="#DejaVuSans-48"/>
              <use x="159" xlink:href="#DejaVuSans-48"/>
              <use x="222.7" xlink:href="#DejaVuSans-48"/>
              <use x="286.3" xlink:href="#DejaVuSans-54"/>
              <use x="349.9" xlink:href="#DejaVuSans-54"/>
              <use x="413.5" xlink:href="#DejaVuSans-54"/>
              <use x="477.1" xlink:href="#DejaVuSans-55"/>
            </g>
          </g>
        </g>
        <g id="ytick_2">
          <use style="fill:#6a5f8e;stroke:#6a5f8e;stroke-width:0.8" x="61.1" xlink:href="#m570893d818" y="13.6" id="line2d_4"/>
          <g id="text_4">
            <defs>
              <path d="M12.4 8.3h16.1v55.6L11 60.4v9l17.4 3.5h9.9V8.3h16V0H12.5z" id="DejaVuSans-49"/>
            </defs>
            <g style="fill:#6a5f8e" transform="matrix(.1 0 0 -.1 0 17.4)">
              <use xlink:href="#DejaVuSans-48"/>
              <use x="63.6" xlink:href="#DejaVuSans-46"/>
              <use x="95.4" xlink:href="#DejaVuSans-48"/>
              <use x="159" xlink:href="#DejaVuSans-48"/>
              <use x="222.7" xlink:href="#DejaVuSans-49"/>
              <use x="286.3" xlink:href="#DejaVuSans-48"/>
              <use x="349.9" xlink:href="#DejaVuSans-48"/>
              <use x="413.5" xlink:href="#DejaVuSans-48"/>
              <use x="477.1" xlink:href="#DejaVuSans-48"/>
            </g>
          </g>
        </g>
      </g>
      <path clip-path="url(#pfcc9cf181d)" d="M61 13.6l37.6 6.7L137 27l39.2 6.6 40.4 6.6 41.3 6.4 42.4 6.5 43.6 6.3 44.6 6.3 46 6.3 47 6.2 48.5 6.2 49.8 6 51.1 6.1 52.5 6 54 5.9 55.6 5.9 57 5.8 58.8 5.7 60.5 5.7 62.3 5.6 64 5.6 66 5.5 15.5 1.3" style="fill:none;stroke:#6955a1;stroke-linecap:square;stroke-width:4" id="line2d_5"/>
      <path d="M61 163V0" style="fill:none;stroke:#6a5f8e;stroke-linecap:square;stroke-linejoin:miter;stroke-width:0.8" id="patch_3"/>
      <path d="M61 163h1116" style="fill:none;stroke:#6a5f8e;stroke-linecap:square;stroke-linejoin:miter;stroke-width:0.8" id="patch_4"/>
    </g>
  </g>
  <defs>
    <clipPath id="pfcc9cf181d">
      <path d="M61.1 0h1116v163H61.1z"/>
    </clipPath>
  </defs>
</svg>
