<svg height="179.758125pt" viewBox="0 0 1148.5 179.8" width="1148.45pt" xmlns="http://www.w3.org/2000/svg" xmlns:xlink="http://www.w3.org/1999/xlink">
  <defs/>
  <g id="figure_1">
    <path d="M0 179.8h1148.5V0H0z" style="fill:none" id="patch_1"/>
    <g id="axes_1">
      <path d="M19.7 163h1116V0H19.7z" style="fill:none" id="patch_2"/>
      <g id="matplotlib.axis_1">
        <g id="xtick_1">
          <g id="line2d_1">
            <defs>
              <path d="M0 0v3.5" id="me9538aa566" style="stroke:#6a5f8e;stroke-width:0.8"/>
            </defs>
            <use style="fill:#6a5f8e;stroke:#6a5f8e;stroke-width:0.8" x="19.7" xlink:href="#me9538aa566" y="163.1"/>
          </g>
          <g id="text_1">
            <defs>
              <path d="M31.8 66.4q-7.6 0-11.5-7.5-3.8-7.5-3.8-22.5t3.8-22.5q3.9-7.5 11.5-7.5 7.7 0 11.5 7.5T47 36.4q0 15-3.8 22.5t-11.5 7.5zm0 7.8q12.2 0 18.7-9.7T57 36.4Q57 18 50.5 8.3 44-1.4 31.8-1.4 19.5-1.4 13 8.3q-6.5 9.7-6.5 28 0 18.5 6.5 28.2 6.4 9.7 18.7 9.7z" id="DejaVuSans-48"/>
            </defs>
            <use xlink:href="#DejaVuSans-48" transform="matrix(.1 0 0 -.1 16.5 177.7)"/>
          </g>
        </g>
        <g id="xtick_2">
          <use style="fill:#6a5f8e;stroke:#6a5f8e;stroke-width:0.8" x="1135.7" xlink:href="#me9538aa566" y="163.1" id="line2d_2"/>
          <g id="text_2">
            <defs>
              <path d="M10.8 73h38.7v-8.4H19.8V46.7q2.2.8 4.3 1.1 2.2.4 4.3.4 12.2 0 19.4-6.7 7-6.7 7-18.1 0-11.8-7.2-18.3-7.4-6.5-20.7-6.5-4.6 0-9.4.8-4.7.7-9.8 2.3v10q4.4-2.5 9.1-3.6 4.7-1.2 9.9-1.2 8.5 0 13.4 4.4 5 4.5 5 12 0 7.7-5 12.1Q35 40 26.7 40q-4 0-7.9-.9-4-.9-8-2.7z" id="DejaVuSans-53"/>
            </defs>
            <g style="fill:#6a5f8e" transform="matrix(.1 0 0 -.1 1123 177.7)">
              <use xlink:href="#DejaVuSans-53"/>
              <use x="63.6" xlink:href="#DejaVuSans-48"/>
              <use x="127.2" xlink:href="#DejaVuSans-48"/>
              <use x="190.9" xlink:href="#DejaVuSans-48"/>
            </g>
          </g>
        </g>
      </g>
      <g id="matplotlib.axis_2">
        <g id="ytick_1">
          <g id="line2d_3">
            <defs>
              <path d="M0 0h-3.5" id="mbcd41983fa" style="stroke:#6a5f8e;stroke-width:0.8"/>
            </defs>
            <use style="fill:#6a5f8e;stroke:#6a5f8e;stroke-width:0.8" x="19.7" xlink:href="#mbcd41983fa" y="149.5"/>
          </g>
          <g id="text_3">
            <defs>
              <path d="M12.4 8.3h16.1v55.6L11 60.4v9l17.4 3.5h9.9V8.3h16V0H12.5z" id="DejaVuSans-49"/>
            </defs>
            <use xlink:href="#DejaVuSans-49" transform="matrix(.1 0 0 -.1 6.4 153.3)"/>
          </g>
        </g>
        <g id="ytick_2">
          <use style="fill:#6a5f8e;stroke:#6a5f8e;stroke-width:0.8" x="19.7" xlink:href="#mbcd41983fa" y="13.6" id="line2d_4"/>
          <g id="text_4">
            <defs>
              <path d="M40.6 39.3q7-1.5 11-6.3t4-11.8q0-10.8-7.4-16.7-7.4-6-21.1-6-4.6 0-9.4 1-4.9.9-10 2.7v9.5q4-2.4 8.9-3.6Q21.5 7 26.8 7q9.3 0 14.1 3.6 4.9 3.7 4.9 10.7 0 6.4-4.5 10Q36.8 35 28.7 35h-8.5V43h9q7.2 0 11 3 3.9 2.8 3.9 8.3 0 5.6-4 8.6t-11.4 3q-4 0-8.7-.9-4.6-.8-10.2-2.7v8.8q5.6 1.6 10.5 2.3 5 .8 9.3.8 11.2 0 17.8-5 6.5-5.2 6.5-13.9 0-6-3.5-10.2-3.4-4.2-9.8-5.8z" id="DejaVuSans-51"/>
              <path d="M19.2 8.3h34.4V0H7.3v8.3l15.3 15.6q9.7 9.8 12.2 12.6 4.7 5.3 6.6 9 2 3.7 2 7.3 0 5.8-4.2 9.5-4 3.6-10.6 3.6-4.6 0-9.8-1.6-5.1-1.6-11-4.9v10q6 2.4 11.1 3.6 5.2 1.2 9.5 1.2 11.4 0 18-5.7 6.8-5.6 6.8-15 0-4.6-1.7-8.6-1.6-4-6-9.5l-7.9-8.2L19.2 8.3z" id="DejaVuSans-50"/>
            </defs>
            <g style="fill:#6a5f8e" transform="matrix(.1 0 0 -.1 0 17.4)">
              <use xlink:href="#DejaVuSans-51"/>
              <use x="63.6" xlink:href="#DejaVuSans-50"/>
            </g>
          </g>
        </g>
      </g>
      <path clip-path="url(#p07e72ccf79)" d="M19.7 149.5l48.5-1 43.7-1.3 39.7-1.2 36.4-1.4 33.7-1.6 31.3-1.6 29.2-1.7 27.5-1.9 25.9-2 24.3-2 23.2-2.2 21.9-2.3 21-2.5 20-2.5 19.2-2.7 18.3-2.7 17.7-2.9 17-3 16.2-3 15.9-3.3 15.4-3.4 14.7-3.4 14.3-3.6 14-3.7 13.7-3.9 13.1-4 12.8-4 12.5-4.2 12.2-4.4 11.9-4.4 11.6-4.6 11.4-4.8 11.1-4.8 11-5 10.7-5.3 10.5-5.3 10.2-5.4 10-5.6 10.1-5.9 9.8-6 2.5-1.4h342" style="fill:none;stroke:#6955a1;stroke-linecap:square;stroke-width:4" id="line2d_5"/>
      <path d="M19.7 163V0" style="fill:none;stroke:#6a5f8e;stroke-linecap:square;stroke-linejoin:miter;stroke-width:0.8" id="patch_3"/>
      <path d="M19.7 163h1116" style="fill:none;stroke:#6a5f8e;stroke-linecap:square;stroke-linejoin:miter;stroke-width:0.8" id="patch_4"/>
    </g>
  </g>
  <defs>
    <clipPath id="p07e72ccf79">
      <path d="M19.7 0h1116v163H19.7z"/>
    </clipPath>
  </defs>
</svg>
