<svg width="723px" height="61px" viewBox="0 0 723 61" xmlns="http://www.w3.org/2000/svg">
  <defs>
    <linearGradient x1="100%" y1="50%" x2="0%" y2="50%" id="a">
      <stop stop-color="pink" offset="0%"/>
      <stop stop-color="#F9E5D0" offset="100%"/>
    </linearGradient>
    <linearGradient x1="100%" y1="50%" x2="0%" y2="50%" id="b">
      <stop stop-color="pink" offset="0%"/>
      <stop stop-color="#F9E5D0" offset="100%"/>
    </linearGradient>
    <linearGradient x1="100%" y1="50%" x2="0%" y2="50%" id="c">
      <stop stop-color="pink" offset="0%"/>
      <stop stop-color="#F9E5D0" offset="100%"/>
    </linearGradient>
  </defs>
  <g fill="none" fill-rule="evenodd">
    <rect fill="url(#a)" width="190" height="51" rx="25.5"/>
    <path d="M22.6 17.6h-3.4V27h-2v-9.4h-3.4v-1.8h8.8v1.8zm5.4 9.6c-2.6 0-4.1-1.7-4.1-4.3 0-2.7 1.5-4.3 4-4.3 2.3 0 3.8 1.6 3.8 4.1v.7H26v.2c0 1.2.8 2 2.2 2 1 0 1.7-.5 2.2-1.2l1.2 1.2c-.6.9-1.8 1.6-3.5 1.6zm-.2-7.1c-1.1 0-1.9.8-1.9 2h3.8c0-1.3-.7-2-1.9-2zm8 6.9h-2v-8.3h2v1.5h.1c.4-.9 1.1-1.6 2.4-1.6 1.7 0 2.8 1 2.8 3V27h-2v-5c0-1.2-.6-1.8-1.6-1.8-.9 0-1.7.4-1.7 1.3V27zm11.2.2c-1.8 0-3.2-.6-4-1.6l1.3-1c.6.7 1.5 1.1 2.7 1.1 1 0 1.7-.3 1.7-1 0-.6-.5-.8-1.2-.9l-1.3-.2c-1.4-.2-2.7-.7-2.7-2.4s1.4-2.6 3.7-2.6c1.5 0 2.7.4 3.4 1.2l-1 1.2c-.6-.5-1.3-1-2.5-1-1 0-1.6.4-1.6 1s.5.8 1.2.9l1.3.2c1.4.2 2.7.7 2.7 2.4s-1.4 2.7-3.7 2.7zm9.6 0c-2.5 0-4-1.7-4-4.3 0-2.7 1.5-4.3 4-4.3s4 1.6 4 4.3c0 2.6-1.5 4.3-4 4.3zm0-1.6c1.2 0 1.9-.7 1.9-2v-1.4c0-1.3-.7-2-1.9-2s-1.9.7-1.9 2v1.3c0 1.4.7 2.1 1.9 2.1zm6 1.4v-1.6h2v-5h-2v-1.7h4.1v2h.1c.3-1 1.1-2 2.6-2h1v2h-1.8c-1.1 0-1.9.5-1.9 1.3v3.4h2.9V27h-7zm11.8 0h-2V15.8h7.2v1.8h-5.2v2.9h4.7v1.7h-4.7V27zm7.4 0v-1.6h2.6v-8.6h-2.6v-1.6h4.6v10.2h2.7V27h-7.3zm13.2.2c-2.5 0-4-1.7-4-4.3 0-2.7 1.5-4.3 4-4.3s4 1.6 4 4.3c0 2.6-1.5 4.3-4 4.3zm0-1.6c1.2 0 1.9-.7 1.9-2v-1.4c0-1.3-.7-2-1.9-2s-1.9.7-1.9 2v1.3c0 1.4.7 2.1 1.9 2.1zm6 1.4l-1-8.3h1.7l.7 6.9h.2l1.1-6.9h1.9l1 6.9h.2l.7-6.9h1.7l-1 8.3h-2.6l-1-6-1 6H101zm12.1 0h-2.7l-.7-11.2h1.8l.3 6.5.2 2.6h.1l1.2-6.5h2l1 6.5h.2l.1-2.6.4-6.5h1.7L118 27h-2.7l-1-6.3h-.2l-1 6.3zm7.1 0v-1.6h2v-5h-2v-1.7h4.1v2h.1c.3-1 1.1-2 2.6-2h1v2h-1.8c-1.1 0-1.9.5-1.9 1.3v3.4h2.9V27h-7zm17.4 0h-1.2c-1 0-1.5-.5-1.6-1.4-.4 1-1.3 1.6-2.6 1.6-1.6 0-2.7-1-2.7-2.5 0-1.7 1.2-2.5 3.7-2.5h1.4v-.5c0-1-.5-1.6-1.6-1.6-1 0-1.6.4-2.1 1l-1.2-1c.5-.8 1.7-1.5 3.5-1.5 2.2 0 3.5 1 3.5 3v3.9h1V27zm-4.7-1.2c1 0 1.7-.5 1.7-1.3v-1.1h-1.4c-1.1 0-1.7.4-1.7 1v.4c0 .6.6 1 1.4 1zm6.4 4.4V18.7h2v1.5h.2c.4-1 1.2-1.6 2.4-1.6 2 0 3.2 1.4 3.2 4.3s-1.3 4.3-3.2 4.3c-1.2 0-2-.7-2.4-1.7h-.1v4.7h-2.1zm3.8-4.6c1.1 0 1.8-.8 1.8-2v-1.4c0-1.2-.7-2-1.8-2-1 0-1.7.4-1.7 1.4v2.6c0 1 .7 1.4 1.7 1.4zm5.8 4.6V18.7h2v1.5h.2c.4-1 1.2-1.6 2.4-1.6 2 0 3.2 1.4 3.2 4.3s-1.3 4.3-3.2 4.3c-1.2 0-2-.7-2.4-1.7h-.1v4.7h-2.1zm3.8-4.6c1.1 0 1.8-.8 1.8-2v-1.4c0-1.2-.7-2-1.8-2-1 0-1.7.4-1.7 1.4v2.6c0 1 .7 1.4 1.7 1.4zm9.7 1.6c-2.6 0-4.1-1.7-4.1-4.3 0-2.7 1.5-4.3 4-4.3 2.3 0 3.8 1.6 3.8 4.1v.7h-5.8v.2c0 1.2.8 2 2.2 2 1 0 1.7-.5 2.2-1.2l1.2 1.2c-.6.9-1.8 1.6-3.5 1.6zm-.2-7.1c-1.1 0-1.9.8-1.9 2h3.8c0-1.3-.7-2-1.9-2zm6 6.9v-1.6h2v-5h-2v-1.7h4.1v2h.1c.3-1 1.1-2 2.6-2h1v2h-1.8c-1.1 0-1.9.5-1.9 1.3v3.4h2.9V27h-7z" fill="#291E56" fill-rule="nonzero"/>
    <rect fill="url(#b)" x="501" y="1" width="222" height="50" rx="25"/>
    <path d="M513.3 19v-2h9.5v2h-3.6v9h-2.3v-9h-3.6zm15.8 6.4h2c-.2 1.7-1.5 2.8-3.5 2.8-2.4 0-4-1.7-4-4.2 0-2.4 1.7-4.2 4-4.2s3.6 1.6 3.6 4v.7h-5.4c.1 1.2.8 1.9 1.8 1.9.7 0 1.3-.3 1.5-1zm-1.5-3.8c-.9 0-1.5.5-1.7 1.5h3.1c0-.8-.5-1.5-1.4-1.5zm5 6.4v-8h2.3v.7c.4-.5 1.2-1 2.1-1 1.8 0 2.9 1.3 2.9 3V28h-2.3v-4.8c0-.8-.4-1.4-1.3-1.4-.7 0-1.3.4-1.4 1.1V28h-2.3zm8.6-2.4h2.2c.2.6.7.9 1.4.9.6 0 1.1-.3 1.1-.8 0-.4-.3-.5-.8-.7l-1.6-.3c-1.3-.3-2.1-1-2.1-2.3 0-1.6 1.4-2.6 3.2-2.6 2 0 3.1 1 3.4 2.5h-2.1c-.2-.5-.5-.8-1.3-.8-.5 0-1 .2-1 .7 0 .3.2.5.7.7l1.6.3c1.4.4 2.2 1.1 2.2 2.4 0 1.6-1.4 2.6-3.3 2.6-2 0-3.4-1-3.6-2.6zM557 24c0 2.5-1.6 4.2-4 4.2-2.3 0-4-1.7-4-4.2s1.7-4.2 4-4.2c2.4 0 4 1.7 4 4.2zm-2.2 0c0-1.4-.7-2.3-1.8-2.3-1 0-1.7 1-1.7 2.3 0 1.3.6 2.3 1.7 2.3s1.8-1 1.8-2.3zm8.5-4V22L562 22c-.7 0-1.3.4-1.5 1.1v5h-2.2v-8h2.2v.7c.4-.5 1-1 1.8-1l.9.2zm3.8 8h-2.3V17h7.4v2H567v2.8h4.7v2H567V28zm8.9-11.7V28h-2.3V16.3h2.3zm9.3 7.7c0 2.5-1.6 4.2-4 4.2-2.3 0-3.9-1.7-3.9-4.2s1.6-4.2 4-4.2c2.3 0 3.9 1.7 3.9 4.2zm-2.2 0c0-1.4-.6-2.3-1.8-2.3-1 0-1.7 1-1.7 2.3 0 1.3.6 2.3 1.7 2.3 1.2 0 1.8-1 1.8-2.3zm9.6-4l1.3 5 1.4-5h2.2l-2.5 8h-2l-1.3-5-1.3 5h-2l-2.5-8h2.2l1.4 5 1.3-5h1.8zm16.3.8c.6-.6 1.3-1 2.5-1 1.6 0 2.6 1.1 2.6 3V28H612v-4.8c0-.9-.4-1.4-1.2-1.4-.5 0-1 .3-1.2 1V28h-2.3v-4.8c0-.9-.3-1.4-1.1-1.4-.6 0-1.1.3-1.3 1V28h-2.2v-8h2.2v.6c.4-.5 1.2-.8 2-.8 1 0 1.8.4 2.2 1zm14.3 3.2c0 2.5-1.6 4.2-3.9 4.2s-4-1.7-4-4.2 1.7-4.2 4-4.2 4 1.7 4 4.2zm-2.2 0c0-1.4-.6-2.3-1.7-2.3s-1.7 1-1.7 2.3c0 1.3.6 2.3 1.7 2.3s1.7-1 1.7-2.3zm8.8 4v-.7c-.3.5-1.1.9-2 .9-2.3 0-3.6-2-3.6-4.2 0-2.3 1.3-4.2 3.6-4.2.9 0 1.7.4 2 .8v-4.3h2.3V28h-2.3zm0-2.7v-2.6c-.2-.6-.8-1-1.5-1-1.2 0-1.9 1-1.9 2.3 0 1.3.7 2.2 2 2.2.6 0 1.2-.3 1.4-.9zm9.1 0h2c-.2 1.8-1.5 2.9-3.5 2.9-2.3 0-3.9-1.7-3.9-4.2 0-2.4 1.6-4.2 3.9-4.2s3.6 1.6 3.6 4v.7h-5.3c0 1.2.7 1.9 1.7 1.9.8 0 1.3-.3 1.5-1zm-1.5-3.7c-.9 0-1.5.5-1.7 1.5h3.1c0-.8-.5-1.5-1.4-1.5zm7.3-5.3V28h-2.2V16.3h2.2zm8 3.7v8h-2.3v-8h2.3zm.2-2.4c0 .8-.6 1.3-1.3 1.3-.8 0-1.4-.5-1.4-1.3 0-.7.6-1.2 1.4-1.2.7 0 1.3.5 1.3 1.2zm1.7 10.4v-8h2.3v.7c.4-.5 1.2-1 2.1-1 1.8 0 2.9 1.3 2.9 3V28h-2.3v-4.8c0-.8-.4-1.4-1.3-1.4-.7 0-1.3.4-1.4 1.1V28h-2.3zm8.6-2.4h2.2c.2.6.7.9 1.4.9.6 0 1-.3 1-.8 0-.4-.2-.5-.7-.7l-1.6-.3c-1.3-.3-2.1-1-2.1-2.3 0-1.6 1.4-2.6 3.2-2.6 2 0 3.1 1 3.4 2.5H668c-.2-.5-.6-.8-1.3-.8-.5 0-1 .2-1 .7 0 .3.2.5.7.7l1.6.3c1.4.4 2.2 1.1 2.2 2.4 0 1.6-1.5 2.6-3.3 2.6-2 0-3.4-1-3.6-2.6zm8.9 0v-3.8h-1.3V20h1.3v-2.2h2.2V20h1.7v1.8h-1.7v3.5c0 .6.3.9.9.9a2 2 0 001-.3v2c-.3.2-.9.3-1.5.3-1.6 0-2.6-.8-2.6-2.6zm12.3 2.4h-2.1v-.4c-.3.2-1.1.5-2 .5-1.6 0-3-.9-3-2.6 0-1.5 1.4-2.5 3.1-2.5.7 0 1.5.2 1.9.4v-.6c0-.7-.5-1.2-1.4-1.2-.6 0-1 .3-1.1.7h-2.2c.3-1.4 1.6-2.5 3.4-2.5 2.2 0 3.4 1.1 3.4 3V28zm-2.1-2.2v-.6c-.2-.4-.9-.7-1.5-.7-.7 0-1.4.3-1.4 1s.7 1 1.4 1c.6 0 1.3-.3 1.5-.7zm4 2.2v-8h2.1v.7c.5-.5 1.3-1 2.2-1 1.8 0 2.8 1.3 2.8 3V28h-2.2v-4.8c0-.8-.4-1.4-1.3-1.4-.7 0-1.3.4-1.5 1.1V28h-2.2zm8.5-4c0-2.5 1.6-4.2 3.9-4.2 2 0 3.3 1.2 3.5 2.9h-2.2c-.1-.6-.6-1-1.3-1-1 0-1.7 1-1.7 2.3 0 1.3.6 2.3 1.7 2.3.7 0 1.2-.4 1.3-1h2.2c-.2 1.7-1.5 2.9-3.5 2.9-2.3 0-3.9-1.7-3.9-4.2zm13.7 1.4h2c-.3 1.7-1.5 2.8-3.5 2.8-2.4 0-4-1.7-4-4.2 0-2.4 1.7-4.2 4-4.2s3.6 1.6 3.6 4v.7h-5.4c0 1.2.8 1.9 1.8 1.9.7 0 1.3-.3 1.5-1zm-1.6-3.8c-.8 0-1.4.5-1.6 1.5h3c0-.8-.4-1.5-1.4-1.5z" fill="#291E56" fill-rule="nonzero"/>
    <rect fill="url(#c)" x="261" width="162" height="51" rx="25.5"/>
    <path d="M284 19.6h-3.4V29h-2v-9.4h-3.4v-1.8h8.8v1.8zm5.4 9.6c-2.6 0-4.1-1.7-4.1-4.3 0-2.7 1.5-4.3 4-4.3 2.3 0 3.8 1.6 3.8 4.1v.7h-5.8v.2c0 1.2.8 2 2.2 2 1 0 1.7-.5 2.2-1.2l1.2 1.2c-.6.9-1.8 1.6-3.5 1.6zm-.2-7.1c-1.1 0-1.9.8-1.9 2h3.8c0-1.3-.7-2-1.9-2zm8 6.9h-2v-8.3h2v1.5h.1c.4-.9 1.1-1.6 2.4-1.6 1.7 0 2.8 1 2.8 3V29h-2v-5c0-1.2-.6-1.8-1.6-1.8-.9 0-1.7.4-1.7 1.3V29zm11.2.2c-1.8 0-3.2-.6-4-1.6l1.3-1c.6.7 1.5 1.1 2.7 1.1 1 0 1.7-.3 1.7-1 0-.6-.5-.8-1.2-.9l-1.3-.2c-1.4-.2-2.7-.7-2.7-2.4s1.4-2.6 3.7-2.6c1.5 0 2.7.4 3.4 1.2l-1 1.2c-.6-.5-1.3-1-2.5-1-1 0-1.6.4-1.6 1s.5.8 1.2.9l1.3.2c1.4.2 2.7.7 2.7 2.4s-1.4 2.7-3.7 2.7zm9.6 0c-2.5 0-4-1.7-4-4.3 0-2.7 1.5-4.3 4-4.3s4 1.6 4 4.3c0 2.6-1.5 4.3-4 4.3zm0-1.6c1.2 0 1.9-.7 1.9-2v-1.4c0-1.3-.7-2-1.9-2s-1.9.7-1.9 2v1.3c0 1.4.7 2.1 1.9 2.1zm6 1.4v-1.6h2v-5h-2v-1.7h4.1v2h.1c.3-1 1.1-2 2.6-2h1v2H330c-1.1 0-1.9.5-1.9 1.3v3.4h2.9V29h-7zm11.8 0h-2V17.8h7.2v1.8h-5.2v2.9h4.7v1.7h-4.7V29zm7.4 0v-1.6h2.6v-8.6h-2.6v-1.6h4.6v10.2h2.7V29h-7.3zm13.2.2c-2.5 0-4-1.7-4-4.3 0-2.7 1.5-4.3 4-4.3s4 1.6 4 4.3c0 2.6-1.5 4.3-4 4.3zm0-1.6c1.2 0 1.9-.7 1.9-2v-1.4c0-1.3-.7-2-1.9-2s-1.9.7-1.9 2v1.3c0 1.4.7 2.1 1.9 2.1zm6 1.4l-1-8.3h1.7l.7 6.9h.2l1.1-6.9h1.9l1 6.9h.2l.7-6.9h1.7l-1 8.3H367l-1-6-1 6h-2.5zm13 .2a5 5 0 01-4-1.8l1.2-1.3c.9 1 1.8 1.4 3 1.4s2-.6 2-1.7c0-.9-.5-1.3-1.8-1.5l-1.1-.2c-2.1-.3-3-1.6-3-3.1 0-2.2 1.6-3.4 4-3.4 1.8 0 3 .6 3.8 1.6l-1.2 1.3a3.2 3.2 0 00-2.6-1.1c-1.2 0-1.8.5-1.8 1.5 0 .8.5 1.2 1.7 1.4l1.2.2c1.9.4 2.8 1.5 2.8 3.2 0 2-1.4 3.5-4.1 3.5zm6.2-.2V17.2h2v5h.1c.4-.9 1.1-1.6 2.4-1.6 1.7 0 2.8 1 2.8 3V29h-2v-5c0-1.2-.6-1.8-1.6-1.8-.9 0-1.7.4-1.7 1.3V29h-2zm13.7-9.5c-1 0-1.3-.5-1.3-1V18c0-.5.4-1 1.3-1 1 0 1.3.5 1.3 1v.4c0 .6-.3 1-1.3 1zm-3.7 9.5v-1.6h2.7v-5h-2.7v-1.7h4.7v6.7h2.6V29h-7.3zm10.3 0h-1.7v-8.3h1.7V22c.3-.8.8-1.3 1.7-1.3.8 0 1.3.5 1.4 1.3h.1c.3-.7.8-1.3 1.8-1.3 1.2 0 1.7.8 1.7 2.5V29h-1.7v-5.6c0-1-.3-1.3-.8-1.3s-.9.3-.9 1V29h-1.6v-5.6c0-1-.3-1.3-.8-1.3s-1 .3-1 1V29z" fill="#291E56" fill-rule="nonzero"/>
    <rect fill="#F1F0FA" x="70" y="41" width="50" height="20" rx="8"/>
    <path d="M82.3 55v-6.3L80.5 53 79 48.7h-.1V55h-1.3v-8.4h1.8l1.2 3.1h.1l1.2-3h1.7V55h-1.3zm5.5.1c-1.9 0-3-1.2-3-3.2s1.1-3.2 3-3.2 3 1.2 3 3.2-1.1 3.2-3 3.2zm0-1.1c.9 0 1.4-.6 1.4-1.6v-1c0-1-.5-1.6-1.4-1.6-.9 0-1.4.6-1.4 1.6v1c0 1 .5 1.6 1.4 1.6zm8.4 1v-1c-.4.7-1 1.1-1.9 1.1-1.4 0-2.4-1-2.4-3.2s1-3.2 2.4-3.2c1 0 1.5.5 1.9 1.2v-3.8h1.6V55h-1.6zM95 54c.6 0 1.2-.4 1.2-1.1v-2c0-.7-.6-1-1.2-1-1 0-1.5.6-1.5 1.5v1c0 1 .6 1.5 1.5 1.5zm7.3 1.1c-2 0-3-1.2-3-3.2s1.1-3.2 3-3.2c1.7 0 2.8 1.2 2.8 3v.6h-4.3v.1c0 1 .6 1.5 1.6 1.5a2 2 0 001.7-.8l.8.9c-.4.6-1.2 1.1-2.6 1.1zm0-5.3c-1 0-1.5.6-1.5 1.5h2.8c0-1-.5-1.5-1.4-1.5zm4.4 5.2v-1.2h2v-6.5h-2v-1.2h3.5v7.7h2V55h-5.5z" fill="#291E56" fill-rule="nonzero"/>
    <rect fill="#F1F0FA" x="528" y="41" width="169" height="20" rx="8"/>
    <path d="M539.6 55h-2.3c-1.2 0-1.7-.7-1.7-1.7V50h-1.8v-1.2h1.2c.5 0 .7-.2.7-.7v-1.5h1.4v2.2h2.5V50h-2.5v3.8h2.5V55zm4.6.1c-2 0-3-1.2-3-3.2s1.1-3.2 3-3.2c1.7 0 2.8 1.2 2.8 3v.6h-4.3v.1c0 1 .6 1.5 1.6 1.5a2 2 0 001.7-.8l.8.9c-.4.6-1.2 1.1-2.6 1.1zm0-5.3c-1 0-1.5.6-1.5 1.5h2.8c0-1-.5-1.5-1.4-1.5zm6 5.2h-1.6v-6.2h1.5V50h.1c.3-.7.8-1.2 1.8-1.2 1.2 0 2 .8 2 2.3v4h-1.5v-3.8c0-.9-.4-1.3-1.1-1.3-.7 0-1.3.3-1.3 1V55zm8.3.1c-1.4 0-2.4-.4-3-1.1l1-.8c.5.5 1.1.8 2 .8.8 0 1.3-.2 1.3-.8 0-.4-.4-.5-.9-.6l-1-.1c-1-.2-2-.6-2-1.8 0-1.3 1-2 2.7-2 1.2 0 2 .3 2.6 1l-.8.8c-.4-.4-1-.7-1.8-.7s-1.2.2-1.2.7c0 .5.4.6.9.7l1 .1c1 .2 2 .6 2 1.8 0 1.3-1 2-2.8 2zm7.2 0c-1.9 0-3-1.2-3-3.2s1.1-3.2 3-3.2 3 1.2 3 3.2-1.1 3.2-3 3.2zm0-1.1c.9 0 1.4-.6 1.4-1.6v-1c0-1-.5-1.6-1.4-1.6-.9 0-1.4.6-1.4 1.6v1c0 1 .5 1.6 1.4 1.6zm4.5 1v-1.2h1.5V50h-1.5v-1.2h3v1.5h.2c.2-.8.8-1.5 1.9-1.5h.7v1.4h-1.3c-.9 0-1.4.4-1.4 1v2.6h2.1V55h-5.2zm7.2 0v-1.2h1.9V50h-2v-1.2h2v-1c0-1 .5-1.7 1.7-1.7h2.1v1.2h-2.3v1.5h2.3V50h-2.3v3.8h2V55h-5.4zm7.2 0v-1.2h2v-6.5h-2v-1.2h3.5v7.7h2V55h-5.5zm9.9.1c-1.9 0-3-1.2-3-3.2s1.1-3.2 3-3.2 3 1.2 3 3.2-1.1 3.2-3 3.2zm0-1.1c.9 0 1.4-.6 1.4-1.6v-1c0-1-.5-1.6-1.4-1.6-.9 0-1.4.6-1.4 1.6v1c0 1 .5 1.6 1.4 1.6zm4.6 1l-.8-6.2h1.3l.5 5.1 1-5h1.3l.9 5 .6-5h1.2l-.8 6.1h-1.8l-.7-4.5h-.1l-.8 4.5h-1.8zm9.8.1c-.8 0-1.2-.4-1.2-.9V54c0-.5.4-1 1.2-1 .8 0 1.2.5 1.2 1v.3c0 .5-.4 1-1.2 1zm4.5-.1v-8.9h1.6v5.2l1-1 1.5-1.5h1.7l-2.4 2.4 2.7 3.8h-1.8l-2-2.9-.7.7V55h-1.6zm10 .1c-2 0-3-1.2-3-3.2s1.1-3.2 3-3.2c1.7 0 2.8 1.2 2.8 3v.6H622v.1c0 1 .6 1.5 1.6 1.5a2 2 0 001.7-.8l.8.9c-.4.6-1.2 1.1-2.6 1.1zm0-5.3c-1 0-1.5.6-1.5 1.5h2.8c0-1-.5-1.5-1.4-1.5zm4.4 5.2v-1.2h1.5V50h-1.5v-1.2h3v1.5h.2c.2-.8.8-1.5 1.9-1.5h.7v1.4h-1.3c-.9 0-1.4.4-1.4 1v2.6h2.1V55h-5.2zm13 0h-.8c-.8 0-1.2-.4-1.3-1-.2.7-1 1.1-1.9 1.1-1.2 0-2-.7-2-1.8 0-1.3.9-1.9 2.7-1.9h1.1V51c0-.8-.4-1.2-1.2-1.2-.8 0-1.2.4-1.6.8l-.8-.7c.3-.7 1.2-1.2 2.5-1.2 1.7 0 2.6.7 2.6 2.2v3h.8V55zm-3.5-1c.8 0 1.3-.3 1.3-.9v-.8h-1c-.9 0-1.3.3-1.3.8v.2c0 .5.4.8 1 .8zm7.6 1.1c-1.4 0-2.4-.4-3-1.1l1-.8c.5.5 1.1.8 2 .8.8 0 1.3-.2 1.3-.8 0-.4-.4-.5-.9-.6l-1-.1c-1-.2-2-.6-2-1.8 0-1.3 1-2 2.7-2 1.2 0 2 .3 2.6 1l-.8.8c-.4-.4-1-.7-1.8-.7s-1.2.2-1.2.7c0 .5.4.6.9.7l1 .1c1 .2 2 .6 2 1.8 0 1.3-1 2-2.8 2zm7.2 0c-.8 0-1.2-.4-1.2-.9V54c0-.5.4-1 1.2-1 .8 0 1.2.5 1.2 1v.3c0 .5-.4 1-1.2 1zm8.9-.1v-6.3l-1.7 4.3-1.6-4.3h-.1V55h-1.3v-8.4h1.8l1.2 3.1h.1l1.2-3h1.7V55H661zm5.5.1c-1.9 0-3-1.2-3-3.2s1.1-3.2 3-3.2 3 1.2 3 3.2-1.1 3.2-3 3.2zm0-1.1c.9 0 1.4-.6 1.4-1.6v-1c0-1-.5-1.6-1.4-1.6-.9 0-1.4.6-1.4 1.6v1c0 1 .5 1.6 1.4 1.6zm8.4 1v-1c-.4.7-1 1.1-1.9 1.1-1.4 0-2.4-1-2.4-3.2s1-3.2 2.4-3.2c1 0 1.5.5 1.9 1.2v-3.8h1.6V55h-1.6zm-1.2-1c.6 0 1.2-.4 1.2-1.1v-2c0-.7-.6-1-1.2-1-1 0-1.5.6-1.5 1.5v1c0 1 .6 1.5 1.5 1.5zM681 55c-2 0-3-1.2-3-3.2s1.1-3.2 3-3.2c1.7 0 2.8 1.2 2.8 3v.6h-4.3v.1c0 1 .6 1.5 1.6 1.5a2 2 0 001.7-.8l.8.9c-.4.6-1.2 1.1-2.6 1.1zm0-5.3c-1 0-1.5.6-1.5 1.5h2.8c0-1-.5-1.5-1.4-1.5zm4.4 5.2v-1.2h2v-6.5h-2v-1.2h3.5v7.7h2V55h-5.5z" fill="#291E56" fill-rule="nonzero"/>
    <rect fill="#F1F0FA" x="320" y="41" width="44" height="20" rx="8"/>
    <path d="M331.1 55.1c-1.4 0-2.4-.5-3-1.3l.9-1c.6.7 1.3 1 2.2 1 1 0 1.4-.4 1.4-1.2 0-.7-.3-1-1.2-1.1l-1-.2c-1.5-.2-2-1.2-2-2.3 0-1.6 1-2.5 2.9-2.5 1.3 0 2.3.4 2.8 1.1l-.9 1c-.4-.5-1-.8-1.9-.8-.9 0-1.4.3-1.4 1s.4 1 1.3 1.2l.9.2c1.4.2 2.1 1 2.1 2.3 0 1.6-1 2.6-3.1 2.6zm4.6-.1v-8.9h1.5V50h.1c.3-.7.8-1.2 1.8-1.2 1.2 0 2 .8 2 2.3v4h-1.5v-3.8c0-.9-.4-1.3-1.1-1.3-.7 0-1.3.3-1.3 1V55h-1.5zm10.3-7.2c-.7 0-1-.3-1-.7v-.3c0-.5.3-.8 1-.8s1 .3 1 .8v.3c0 .4-.3.7-1 .7zm-2.8 7.2v-1.2h2V50h-2v-1.2h3.6v5h1.8V55h-5.4zm7.7 0h-1.3v-6.2h1.3v.9c.3-.6.6-1 1.3-1 .6 0 1 .3 1 1h.1c.2-.6.6-1 1.4-1 .9 0 1.2.6 1.2 2V55h-1.2v-4.2c0-.7-.2-1-.6-1-.4 0-.7.3-.7.7V55h-1.2v-4.2c0-.7-.2-1-.6-1-.4 0-.7.3-.7.7V55z" fill="#291E56" fill-rule="nonzero"/>
    <path d="M225.4 35.5a1.7 1.7 0 000-2.4l-4-3.9h13c.8 0 1.6-.8 1.6-1.7 0-1-.8-1.7-1.7-1.7h-12.8l3.9-3.9c.6-.7.6-1.7 0-2.4-.7-.7-1.8-.7-2.4 0l-8 8 8 8a1.7 1.7 0 002.4 0zM458.4 35.5a1.7 1.7 0 000-2.4l-4-3.9h13c.8 0 1.6-.8 1.6-1.7 0-1-.8-1.7-1.7-1.7h-12.8l3.9-3.9c.6-.7.6-1.7 0-2.4-.7-.7-1.8-.7-2.4 0l-8 8 8 8a1.7 1.7 0 002.4 0z" fill="#000" fill-rule="nonzero"/>
  </g>
</svg>
