<svg width="723px" height="61px" viewBox="0 0 723 61" xmlns="http://www.w3.org/2000/svg">
  <defs>
    <linearGradient x1="100%" y1="50%" x2="0%" y2="50%" id="a">
      <stop stop-color="pink" offset="0%"/>
      <stop stop-color="#F9E5D0" offset="100%"/>
    </linearGradient>
    <linearGradient x1="100%" y1="50%" x2="0%" y2="50%" id="b">
      <stop stop-color="pink" offset="0%"/>
      <stop stop-color="#F9E5D0" offset="100%"/>
    </linearGradient>
    <linearGradient x1="100%" y1="50%" x2="0%" y2="50%" id="c">
      <stop stop-color="pink" offset="0%"/>
      <stop stop-color="#F9E5D0" offset="100%"/>
    </linearGradient>
  </defs>
  <g fill="none" fill-rule="evenodd">
    <rect fill="url(#a)" width="175" height="51" rx="25.5"/>
    <path d="M24 26.8h-2V15.7h4.2c2.2 0 3.4 1.3 3.4 3.4 0 2.1-1.2 3.5-3.4 3.5h-2.1v4.2zm0-9.4v3.5h1.8c1.1 0 1.6-.5 1.6-1.5v-.6c0-1-.5-1.4-1.6-1.4H24zM36 22l1.3-3.4h2l-3.8 9.7c-.5 1-1.2 1.7-2.5 1.7h-1.5v-1.6h2l.6-1.7-3.3-8.1h2.1l1.3 3.4.9 2.6 1-2.6zm13-4.6h-3.3v9.4h-2.1v-9.4h-3.3v-1.7H49v1.7zm5.2 9.6c-2.5 0-4-1.7-4-4.3 0-2.7 1.5-4.3 4-4.3s4 1.6 4 4.3c0 2.6-1.5 4.3-4 4.3zm0-1.6c1.2 0 1.9-.7 1.9-2V22c0-1.4-.7-2.2-1.9-2.2s-1.9.8-1.9 2.2v1.2c0 1.4.7 2.1 1.9 2.1zm6 1.4v-1.6h2v-5h-2v-1.6h4v2h.2c.3-1 1-2 2.6-2h1v1.9h-1.8c-1.2 0-2 .5-2 1.4v3.3h3v1.6h-7zm13.4.2c-2.5 0-4-1.7-4-4.3 0-2.7 1.5-4.3 4-4.3 1.8 0 2.8.8 3.3 2l-1.5.8c-.3-.7-.8-1.2-1.8-1.2-1.2 0-1.9.8-1.9 2v1.4c0 1.2.7 2 2 2 1 0 1.5-.6 1.8-1.3l1.6 1c-.6 1-1.7 1.9-3.5 1.9zm5.7-.2V15h2v5h.1c.4-.9 1-1.6 2.4-1.6 1.6 0 2.8 1.1 2.8 3v5.4h-2v-5c0-1.2-.6-1.8-1.6-1.8-.9 0-1.7.4-1.7 1.3v5.5h-2zm12.1 0h-2.7L88 15.7h1.8L90 22l.2 2.6h.1l1.1-6.5h2l1 6.5h.2l.2-2.6.3-6.4H97l-.8 11.1h-2.7l-1-6.3h-.1l-1 6.3zm7 0v-1.6h2v-5h-2v-1.6h4.1v2h.1c.4-1 1.1-2 2.6-2h1v1.9h-1.8c-1.1 0-1.9.5-1.9 1.4v3.3h2.9v1.6h-7zm17.4 0h-1.2c-1 0-1.5-.5-1.6-1.4h-.1c-.3 1-1.2 1.6-2.5 1.6-1.6 0-2.7-1-2.7-2.5 0-1.6 1.2-2.5 3.6-2.5h1.5v-.5c0-1-.5-1.6-1.6-1.6-1 0-1.7.5-2.1 1.1l-1.2-1c.5-.9 1.7-1.6 3.5-1.6 2.1 0 3.4 1 3.4 3v3.9h1v1.5zm-4.7-1.2c1 0 1.7-.5 1.7-1.3v-1h-1.4c-1.1 0-1.7.3-1.7 1v.3c0 .6.5 1 1.4 1zm6.4 4.4V18.6h2V20h.1c.5-1 1.2-1.6 2.5-1.6 1.9 0 3.1 1.4 3.1 4.3S124 27 122.1 27c-1.3 0-2-.7-2.5-1.6V30h-2.1zm3.7-4.6c1.2 0 1.9-.8 1.9-2V22c0-1.2-.7-2-1.9-2-1 0-1.7.5-1.7 1.4V24c0 1 .8 1.4 1.7 1.4zM127 30V18.6h2V20h.2c.4-1 1.2-1.6 2.4-1.6 2 0 3.2 1.4 3.2 4.3s-1.3 4.3-3.2 4.3c-1.2 0-2-.7-2.4-1.6h-.1V30h-2zm3.8-4.6c1.2 0 1.8-.8 1.8-2V22c0-1.2-.6-2-1.8-2-1 0-1.7.5-1.7 1.4V24c0 1 .8 1.4 1.7 1.4zm9.7 1.6c-2.7 0-4.1-1.7-4.1-4.3 0-2.7 1.5-4.3 4-4.3 2.3 0 3.8 1.6 3.8 4.1v.7h-5.8v.2c0 1.2.8 2 2.1 2 1 0 1.8-.5 2.3-1.1l1.1 1.1c-.6.9-1.7 1.6-3.4 1.6zm-.2-7.1c-1.1 0-1.9.8-1.9 2h3.7c0-1.3-.7-2-1.8-2zm6 7v-1.7h2v-5h-2v-1.6h4v2h.1c.4-1 1.2-2 2.6-2h1v1.9h-1.7c-1.2 0-2 .5-2 1.4v3.3h2.9v1.6h-7z" fill="#291E56" fill-rule="nonzero"/>
    <rect fill="url(#b)" x="467" width="201" height="50" rx="25"/>
    <path d="M485.5 23h-2.2v4H481V15.7h4.5c2.3 0 3.9 1.3 3.9 3.7 0 2.4-1.6 3.6-4 3.6zm1.6-3.6c0-1-.6-1.7-1.8-1.7h-2V21h2c1.2 0 1.8-.7 1.8-1.6zm7 10.6H492l1.2-3-3.1-8.3h2.3l1.9 5.5 1.8-5.5h2.3L494.2 30zm5-12.3v-2h9.4v2h-3.6V27h-2.3v-9.3h-3.5zm18.2 5.2c0 2.5-1.6 4.2-4 4.2-2.3 0-3.9-1.7-3.9-4.2 0-2.6 1.6-4.3 4-4.3 2.3 0 3.9 1.7 3.9 4.3zm-2.2 0c0-1.4-.6-2.4-1.8-2.4-1 0-1.7 1-1.7 2.4 0 1.3.6 2.3 1.7 2.3 1.2 0 1.8-1 1.8-2.3zm8.5-4.2V21c-.3-.2-.7-.3-1.2-.3-.7 0-1.3.4-1.5 1.2v5h-2.2v-8.2h2.2v.8c.4-.5 1-1 1.8-1l.9.2zm.9 4.2c0-2.6 1.6-4.3 3.9-4.3 2 0 3.2 1.2 3.5 3h-2.2c-.1-.7-.6-1.1-1.3-1.1-1 0-1.7 1-1.7 2.4 0 1.3.6 2.3 1.7 2.3.7 0 1.2-.4 1.3-1h2.2c-.3 1.8-1.5 3-3.5 3-2.3 0-3.9-1.8-3.9-4.3zm8.7 4V15h2.3v4.5c.4-.5 1.2-1 2.1-1 1.8 0 2.9 1.3 2.9 3V27h-2.3v-5c0-.8-.4-1.4-1.3-1.4-.7 0-1.2.4-1.4 1.2V27h-2.3zm19.3-7.3c.6-.6 1.3-1 2.5-1 1.6 0 2.6 1.1 2.6 3V27h-2.2v-5c0-.8-.4-1.4-1.2-1.4-.5 0-1 .4-1.2 1V27h-2.3v-5c0-.8-.3-1.4-1-1.4s-1.2.4-1.3 1V27H546v-8.3h2.3v.7c.4-.5 1-.8 2-.8s1.7.4 2.1 1zm14.3 3.3c0 2.5-1.6 4.2-4 4.2-2.2 0-3.8-1.7-3.8-4.2 0-2.6 1.6-4.3 3.9-4.3s4 1.7 4 4.3zm-2.2 0c0-1.4-.6-2.4-1.7-2.4s-1.7 1-1.7 2.4c0 1.3.6 2.3 1.7 2.3s1.7-1 1.7-2.3zm8.8 4v-.6c-.4.4-1.1.8-2 .8-2.3 0-3.7-1.9-3.7-4.2 0-2.4 1.4-4.3 3.7-4.3.9 0 1.6.4 2 .8V15h2.2v12h-2.2zm0-2.7v-2.7c-.2-.6-.9-1-1.5-1-1.2 0-2 1-2 2.4 0 1.3.8 2.3 2 2.3.7 0 1.3-.4 1.5-1zm9 0h2.1c-.3 1.8-1.5 3-3.5 3-2.4 0-4-1.8-4-4.3s1.7-4.3 4-4.3 3.6 1.6 3.6 4v.7h-5.4c.1 1.3.8 2 1.8 2 .7 0 1.3-.3 1.5-1zm-1.5-3.8c-.8 0-1.4.5-1.6 1.6h3c0-1-.4-1.6-1.4-1.6zm7.3-5.4v12H586V15h2.2zm8 3.7V27H594v-8.3h2.2zm.2-2.3c0 .7-.6 1.3-1.3 1.3-.7 0-1.3-.6-1.3-1.3 0-.8.6-1.3 1.3-1.3.7 0 1.3.5 1.3 1.3zm1.7 10.6v-8.3h2.3v.8c.4-.5 1.2-1 2.1-1 1.8 0 2.9 1.3 2.9 3V27H603v-5c0-.8-.4-1.4-1.3-1.4-.7 0-1.3.4-1.4 1.2V27H598zm8.6-2.5h2.2c.2.6.7 1 1.4 1 .6 0 1-.4 1-.9 0-.4-.2-.5-.7-.7l-1.6-.4c-1.3-.3-2.1-.9-2.1-2.3 0-1.6 1.4-2.6 3.2-2.6 2 0 3.1 1 3.4 2.5h-2.1c-.2-.5-.6-.8-1.3-.8-.5 0-1 .2-1 .8 0 .3.2.5.7.6l1.6.4c1.4.3 2.2 1.1 2.2 2.4 0 1.7-1.5 2.6-3.3 2.6-2 0-3.4-1-3.6-2.6zm8.9 0v-4h-1.3v-1.8h1.3v-2.2h2.2v2.2h1.7v1.9h-1.7v3.6c0 .6.3 1 .9 1 .3 0 .7-.2 1-.4v2c-.4.2-.9.3-1.5.3-1.6 0-2.6-.8-2.6-2.6zm12.3 2.5h-2.2v-.5c-.2.3-1 .6-2 .6-1.6 0-3-1-3-2.7 0-1.5 1.4-2.6 3.2-2.6.7 0 1.5.2 1.8.5v-.6c0-.7-.4-1.3-1.3-1.3-.6 0-1 .3-1.2.8h-2.1c.2-1.5 1.5-2.6 3.4-2.6 2.1 0 3.4 1.1 3.4 3.1V27zm-2.2-2.3v-.6c-.2-.4-.8-.7-1.4-.7-.7 0-1.5.3-1.5 1s.8 1 1.5 1c.6 0 1.2-.2 1.4-.7zm4 2.3v-8.3h2.2v.8c.4-.5 1.2-1 2.2-1 1.8 0 2.8 1.3 2.8 3V27h-2.2v-5c0-.8-.5-1.4-1.3-1.4-.7 0-1.3.4-1.5 1.2V27h-2.2zm8.5-4.1c0-2.6 1.6-4.3 4-4.3 2 0 3.2 1.2 3.4 3h-2.2c0-.7-.6-1.1-1.3-1.1-1 0-1.6 1-1.6 2.4 0 1.3.6 2.3 1.6 2.3.7 0 1.2-.4 1.3-1h2.2c-.2 1.8-1.5 3-3.5 3-2.3 0-3.9-1.8-3.9-4.3zm13.7 1.4h2c-.2 1.7-1.5 2.8-3.5 2.8-2.3 0-4-1.7-4-4.2s1.7-4.3 4-4.3 3.6 1.6 3.6 4v.7h-5.4c.1 1.3.8 2 1.8 2 .7 0 1.3-.3 1.5-1zm-1.5-3.9c-.9 0-1.5.5-1.7 1.6h3.1c0-1-.5-1.6-1.4-1.6z" fill="#291E56" fill-rule="nonzero"/>
    <rect fill="url(#c)" x="246" width="150" height="51" rx="25.5"/>
    <path d="M271.1 28.8H269v-11h4.3c2.1 0 3.3 1.3 3.3 3.4 0 2.1-1.2 3.4-3.3 3.4H271v4.2zm0-9.3V23h1.7c1.1 0 1.6-.5 1.6-1.5V21c0-1-.5-1.4-1.6-1.4h-1.7zm12 4.6l1.3-3.4h2.1l-4 9.6c-.4 1.1-1 1.7-2.4 1.7h-1.6v-1.6h2l.6-1.6-3.3-8.1h2.2l1.3 3.4.8 2.6h.2l.8-2.6zm13.1-4.6h-3.4v9.3h-2v-9.3h-3.4v-1.7h8.8v1.7zm5.2 9.5c-2.5 0-4-1.6-4-4.2 0-2.7 1.5-4.3 4-4.3s4 1.6 4 4.3c0 2.6-1.5 4.2-4 4.2zm0-1.5c1.2 0 2-.7 2-2.1v-1.3c0-1.3-.8-2-2-2s-1.9.7-1.9 2v1.3c0 1.4.7 2 2 2zm6 1.3v-1.6h2v-5h-2v-1.5h4.1v2h.1c.4-1 1.2-2 2.6-2h1v1.9h-1.7c-1.2 0-2 .5-2 1.3v3.3h3v1.6h-7zm13.6.2c-2.6 0-4-1.6-4-4.2 0-2.7 1.5-4.3 4-4.3 1.7 0 2.8.8 3.3 2l-1.6.8c-.3-.7-.8-1.2-1.7-1.2-1.2 0-2 .8-2 2v1.3c0 1.2.7 2 2 2 1 0 1.5-.5 1.9-1.2l1.5.9c-.5 1.1-1.6 2-3.4 2zm5.7-.2V17.2h2v5h.1c.4-1 1-1.7 2.4-1.7 1.7 0 2.8 1.1 2.8 3v5.3h-2v-5c0-1.1-.6-1.7-1.6-1.7-.9 0-1.7.4-1.7 1.3v5.4h-2zm13 .2a5 5 0 01-4-1.8l1.2-1.2c.9.9 1.8 1.3 3 1.3s2-.6 2-1.6c0-.9-.5-1.3-1.7-1.5L339 24c-2.1-.3-2.9-1.6-2.9-3.1 0-2.1 1.5-3.3 4-3.3 1.7 0 3 .6 3.7 1.6l-1.2 1.3a3.2 3.2 0 00-2.6-1.2c-1.2 0-1.8.5-1.8 1.5 0 .8.5 1.3 1.7 1.5l1.2.2c2 .3 2.9 1.4 2.9 3 0 2-1.5 3.5-4.2 3.5zm6.2-.2V17.2h2v5h.2c.3-1 1-1.7 2.4-1.7 1.6 0 2.7 1.1 2.7 3v5.3h-2v-5c0-1.1-.5-1.7-1.6-1.7-.8 0-1.6.4-1.6 1.3v5.4h-2zm13.8-9.4c-1 0-1.3-.4-1.3-1V18c0-.5.3-1 1.3-1s1.3.5 1.3 1v.4c0 .6-.4 1-1.3 1zm-3.8 9.4v-1.6h2.8v-5h-2.8v-1.5h4.8v6.5h2.5v1.6H356zm10.4 0h-1.7v-8.1h1.7v1.1c.3-.7.8-1.3 1.6-1.3.9 0 1.4.5 1.5 1.4h.1c.3-.8.8-1.4 1.8-1.4 1.2 0 1.7.9 1.7 2.6v5.7h-1.7v-5.5c0-1-.3-1.3-.8-1.3s-.9.3-.9 1v5.8H368v-5.5c0-1-.2-1.3-.7-1.3-.6 0-1 .3-1 1v5.8z" fill="#291E56" fill-rule="nonzero"/>
    <rect fill="#F1F0FA" x="63" y="41" width="50" height="20" rx="8"/>
    <path d="M74.7 54.9v-4l.1-2.3h-.1l-1.6 4.3-1.7-4.3v6.3H70v-8.4h1.9l1.2 3 1.2-3h1.8v8.4h-1.4zm5.7.1c-2 0-3.1-1.2-3.1-3.2s1.2-3.3 3-3.3c2 0 3.1 1.3 3.1 3.3 0 2-1.2 3.2-3 3.2zm0-1.2c.8 0 1.4-.5 1.4-1.6v-1c0-1-.6-1.5-1.4-1.5-1 0-1.5.6-1.5 1.6v1c0 1 .6 1.5 1.5 1.5zm8.5 1v-1c-.4.7-1 1.2-2 1.2-1.4 0-2.4-1-2.4-3.2s1-3.3 2.4-3.3c1 0 1.6.5 2 1.3V46h1.5v8.9H89zm-1.3-1c.7 0 1.3-.4 1.3-1v-2c0-.7-.6-1-1.3-1-1 0-1.4.5-1.4 1.5v1c0 .9.5 1.5 1.4 1.5zM95 55c-2 0-3.1-1.2-3.1-3.2s1.1-3.3 3-3.3c1.8 0 3 1.3 3 3.1v.5h-4.5v.2c0 .9.6 1.5 1.6 1.5a2 2 0 001.7-.9l1 1c-.5.6-1.4 1.1-2.7 1.1zm-.1-5.3c-1 0-1.5.6-1.5 1.4v.1h2.9c0-1-.6-1.5-1.4-1.5zm4.4 5.2v-1.3h2v-6.4h-2V46h3.6v7.6h2V55h-5.6z" fill="#291E56" fill-rule="nonzero"/>
    <rect fill="#F1F0FA" x="517" y="41" width="109" height="20" rx="8"/>
    <path d="M527.8 54.9h-2.3c-1.2 0-1.7-.7-1.7-1.7v-3.3H522v-1.2h1.2c.5 0 .7-.2.7-.7v-1.5h1.4v2.2h2.5v1.2h-2.5v3.7h2.5V55zm4.5.1c-1.9 0-3-1.2-3-3.2s1.1-3.3 3-3.3c1.8 0 3 1.3 3 3.3 0 2-1.2 3.2-3 3.2zm0-1.2c.8 0 1.4-.5 1.4-1.6v-1c0-1-.6-1.5-1.4-1.5-1 0-1.5.6-1.5 1.6v1c0 1 .6 1.5 1.5 1.5zm4.4 1v-1.2h1.6V50h-1.6v-1.2h3.1V50c.3-.7 1-1.4 2-1.4h.7V50h-1.3c-.8 0-1.4.4-1.4 1v2.5h2.1V55h-5.2zm10.1.2c-1.9 0-3-1.2-3-3.2s1.2-3.3 3-3.3c1.3 0 2.1.6 2.5 1.5l-1.2.7c-.2-.6-.6-1-1.3-1-.9 0-1.4.7-1.4 1.6v1c0 .9.5 1.5 1.4 1.5.8 0 1.2-.4 1.5-1l1.1.7c-.4.9-1.2 1.5-2.6 1.5zm4.3-.1V46h1.5v3.8c.3-.7.9-1.3 1.9-1.3 1.2 0 2 .9 2 2.4v4H555V51c0-.9-.4-1.4-1.2-1.4-.6 0-1.2.4-1.2 1V55h-1.5zm9.8 0c-.8 0-1.1-.3-1.1-.8v-.4c0-.5.3-.9 1.1-.9.9 0 1.2.4 1.2 1v.3c0 .5-.3.9-1.2.9zm6 0h-1.5v-6.2h1.5v1h.1c.3-.6.8-1.2 1.8-1.2 1.2 0 2 .9 2 2.4v4h-1.5V51c0-.9-.4-1.4-1.1-1.4-.7 0-1.3.4-1.3 1V55zm7.2 0h-1.5v-6.2h1.5v1c.3-.6.9-1.2 1.9-1.2 1.2 0 2 .9 2 2.4v4h-1.5V51c0-.9-.4-1.4-1.2-1.4-.6 0-1.2.4-1.2 1V55zm8.3 0c-.8 0-1.1-.3-1.1-.8v-.4c0-.5.3-.9 1.1-.9.9 0 1.2.4 1.2 1v.3c0 .5-.3.9-1.2.9zm8.8 0v-4l.1-2.3-1.7 4.3-1.6-4.3h-.1v6.3h-1.3v-8.4h1.8l1.2 3 1.3-3h1.7v8.4h-1.4zm5.6.1c-1.9 0-3-1.2-3-3.2s1.1-3.3 3-3.3c1.8 0 3 1.3 3 3.3 0 2-1.2 3.2-3 3.2zm0-1.2c.8 0 1.4-.5 1.4-1.6v-1c0-1-.6-1.5-1.4-1.5-1 0-1.5.6-1.5 1.6v1c0 1 .6 1.5 1.5 1.5zm8.4 1v-1h-.1c-.4.7-1 1.2-1.9 1.2-1.4 0-2.3-1-2.3-3.2s1-3.3 2.3-3.3c1 0 1.5.5 1.9 1.3V46h1.6v8.9h-1.5zm-1.3-1c.7 0 1.3-.4 1.3-1v-2c0-.7-.6-1-1.3-1-.9 0-1.4.5-1.4 1.5v1c0 .9.5 1.5 1.4 1.5zm7.3 1.2c-2 0-3-1.2-3-3.2s1.1-3.3 3-3.3c1.7 0 2.8 1.3 2.8 3.1v.5h-4.3v.2c0 .9.6 1.5 1.6 1.5a2 2 0 001.7-.9l.8 1c-.4.6-1.3 1.1-2.6 1.1zm0-5.3c-1 0-1.5.6-1.5 1.4v.1h2.8c0-1-.5-1.5-1.4-1.5zm4.3 5.2v-1.3h2v-6.4h-2V46h3.5v7.6h2V55h-5.5z" fill="#291E56" fill-rule="nonzero"/>
    <rect fill="#F1F0FA" x="298" y="41" width="44" height="20" rx="8"/>
    <path d="M309 55c-1.3 0-2.4-.5-3-1.3l1-1c.6.7 1.3 1 2.1 1 1 0 1.5-.4 1.5-1.2 0-.7-.3-1-1.2-1.1l-1-.2c-1.5-.2-2-1.1-2-2.3 0-1.6 1-2.4 2.9-2.4 1.3 0 2.2.4 2.8 1.1l-.9 1c-.4-.5-1-.9-2-.9-.8 0-1.3.4-1.3 1.1 0 .7.4 1 1.3 1.1l.9.2c1.4.2 2.1 1 2.1 2.3 0 1.5-1 2.6-3.1 2.6zm4.7-.1V46h1.5v3.7h.1c.3-.6.8-1.2 1.8-1.2 1.2 0 2 .8 2 2.3v4h-1.5V51c0-.8-.4-1.3-1.1-1.3-.7 0-1.3.3-1.3 1v4h-1.5zm10.3-7c-.7 0-1-.4-1-.8v-.3c0-.5.3-.8 1-.8s1 .3 1 .8v.3c0 .4-.3.7-1 .7zm-2.8 7v-1.2h2V50h-2v-1.2h3.6v4.9h1.9v1.2h-5.5zm7.8 0h-1.3v-6.1h1.3v.8c.2-.5.5-1 1.2-1 .6 0 1 .4 1.1 1 .3-.5.7-1 1.4-1 1 0 1.3.7 1.3 2v4.3h-1.3v-4.2c0-.7-.2-1-.6-1-.3 0-.6.3-.6.8v4.4h-1.3v-4.2c0-.7-.2-1-.6-1-.4 0-.6.3-.6.8v4.4z" fill="#291E56" fill-rule="nonzero"/>
    <path d="M210.4 34.5a1.7 1.7 0 000-2.4l-4-3.9h13c.8 0 1.6-.8 1.6-1.7 0-1-.8-1.7-1.7-1.7h-12.8l3.9-3.9c.6-.7.6-1.7 0-2.4-.7-.7-1.8-.7-2.4 0l-8 8 8 8a1.7 1.7 0 002.4 0zM431.4 33.5a1.7 1.7 0 000-2.4l-4-3.9h13c.8 0 1.6-.8 1.6-1.7 0-1-.8-1.7-1.7-1.7h-12.8l3.9-3.9c.6-.7.6-1.7 0-2.4-.7-.7-1.8-.7-2.4 0l-8 8 8 8a1.7 1.7 0 002.4 0z" fill="#000" fill-rule="nonzero"/>
  </g>
</svg>
